<svg width="50" height="50" viewBox="0 0 50 50" fill="none" xmlns="http://www.w3.org/2000/svg">
<path d="M8.33329 39.5833H4.16663C4.16663 32.6798 9.76307 27.0833 16.6666 27.0833C23.5702 27.0833 29.1666 32.6798 29.1666 39.5833H25C25 34.981 21.269 31.25 16.6666 31.25C12.0643 31.25 8.33329 34.981 8.33329 39.5833ZM42.2791 32.7208L37.5 27.9438L32.7229 32.7208L29.777 29.775L34.552 25L29.777 20.2229L32.7229 17.2771L37.5 22.0542L42.277 17.2771L45.2229 20.2229L40.4458 25L45.2229 29.7771L42.2791 32.7208ZM16.6666 25C12.0643 25 8.33329 21.2691 8.33329 16.6667C8.33329 12.0643 12.0643 8.33334 16.6666 8.33334C21.269 8.33334 25 12.0643 25 16.6667C24.9942 21.2667 21.2666 24.9943 16.6666 25ZM16.6666 12.5C14.3904 12.5023 12.5372 14.3309 12.5046 16.607C12.472 18.883 14.272 20.764 16.5472 20.8315C18.8225 20.899 20.7309 19.1281 20.8333 16.8542V17.6875V16.6667C20.8333 14.3655 18.9678 12.5 16.6666 12.5Z" fill="#EF5DA8"/>
</svg>
